<?xml version="1.0" encoding="utf-8"?>
<svg xmlns="http://www.w3.org/2000/svg" height="43" preserveAspectRatio="xMinYMin meet" viewBox="0 0 177 43" width="177">
  <path d="M23.5.36l-3.96 19.65h-3.61L11.78 6.46 7.63 20H4L0 .36h3.45l2.77 13.67L10.32.67h3.03l4 13.36L20.2.36h3.3zm18.14 9.84c0 3.22-.37 5.82-2.53 7.96a8.06 8.06 0 0 1-5.72 2.21c-2.13 0-4.2-.72-5.72-2.21-2.16-2.14-2.52-4.74-2.52-7.96 0-3.21.36-5.85 2.52-7.98A8.05 8.05 0 0 1 33.4 0c2.13 0 4.2.72 5.72 2.22 2.16 2.13 2.53 4.77 2.53 7.98zm-3.68 0c0-1.8-.05-4.24-1.43-5.65a4.42 4.42 0 0 0-6.28 0c-1.37 1.41-1.43 3.85-1.43 5.65 0 1.8.06 4.21 1.43 5.63a4.42 4.42 0 0 0 6.28 0c1.38-1.42 1.43-3.83 1.43-5.63zm20.02 9.81H45.14V.36h3.62v16.27h9.22v3.38zM74.3 3.61H64.18v5.26h9.03v3.24h-9.03v7.9h-3.62V.36H74.3V3.6zm16.49 0H80.66v5.26h9.03v3.24h-9.03v7.9h-3.61V.36h13.74V3.6zm23.94 6.6c0 3.2-.36 5.81-2.52 7.95a8.05 8.05 0 0 1-5.72 2.21c-2.13 0-4.2-.72-5.72-2.21-2.16-2.14-2.53-4.74-2.53-7.96 0-3.21.37-5.85 2.53-7.98A8.05 8.05 0 0 1 106.49 0c2.13 0 4.2.72 5.72 2.22 2.15 2.13 2.52 4.77 2.52 7.98zm-3.67 0c0-1.81-.06-4.25-1.43-5.66a4.42 4.42 0 0 0-6.28 0c-1.38 1.41-1.43 3.85-1.43 5.65 0 1.8.05 4.21 1.43 5.63a4.42 4.42 0 0 0 6.28 0c1.37-1.42 1.43-3.83 1.43-5.63zm20.02 9.8h-12.85V.36h3.62v16.27h9.22v3.38zm6.25 0h-3.68V.36h3.68v19.65zm20.55 0h-3.73l-8.6-13.5v13.5h-3.57V.36h3.84l8.5 13.3V.37h3.56v19.65zM177 14.16a5.5 5.5 0 0 1-1.65 4.1c-1.52 1.5-3.84 2.11-6.28 2.11-2.1 0-4.32-.55-5.95-2.02a6.24 6.24 0 0 1-2.07-4.57h3.7c0 .97.45 1.83 1.04 2.4.84.84 2.18 1.06 3.33 1.06 1.38 0 2.7-.27 3.45-1.05.45-.47.79-.94.79-1.89 0-1.44-1.13-2.1-2.36-2.33-1.35-.24-3.08-.3-4.4-.52-2.75-.45-5.05-2.22-5.05-5.49 0-1.55.7-2.86 1.74-3.88C164.61.8 166.79 0 169.12 0c2.13 0 4.2.67 5.55 1.91 1.18 1.11 2 2.55 2.02 4.19H173c-.03-.7-.4-1.44-.87-1.94-.64-.67-1.96-1.06-3.03-1.06-1.12 0-2.4.25-3.22 1.09-.42.44-.67.94-.67 1.66 0 1.27.84 1.94 2.01 2.13 1.27.2 3.03.34 4.32.5 2.97.42 5.47 2.33 5.47 5.68z" fill="#515763" fill-rule="nonzero"/>
</svg>