<svg width="396" height="101" viewBox="0 0 396 101" fill="none" xmlns="http://www.w3.org/2000/svg">
<path d="M58.3651 58.1015C58.4799 57.7111 58.7035 57.0006 59.0003 56.1105H75.6781L92.3836 4.38535H85.1181L79.4275 21.6713H48.9963C40.9176 21.6713 37.4372 27.2655 35.9829 32.1218C35.8504 32.5121 35.6288 33.2187 35.332 34.101H18.6561L1.94271 85.8535H9.21415L14.9086 68.55H45.3339C53.4087 68.55 56.9029 62.9636 58.3612 58.0995M43.1673 32.6585C43.5439 31.3986 44.3456 30.3036 45.4396 29.5548C46.5336 28.8061 47.8542 28.4488 49.1823 28.542H77.2788L70.4901 49.2516H61.3093C62.4213 45.9334 63.4363 42.9704 63.4363 42.9704C64.8609 37.9735 61.7782 34.1088 57.4114 34.1088H42.6944C42.92 33.4178 43.0901 32.9201 43.1673 32.6585ZM40.3972 40.9736H56.7268C56.7268 40.9736 55.3418 45.098 53.9429 49.2496H37.6133C37.6133 49.2496 38.9984 45.135 40.3834 40.9736M17.0534 61.6793L23.848 40.9697H33.0387C31.9169 44.2879 30.8999 47.2489 30.8999 47.2489C29.4851 52.2575 32.554 56.1047 36.9307 56.1047H51.6378C51.4122 56.8035 51.2421 57.3032 51.1649 57.5588C50.7902 58.8213 49.9882 59.9189 48.8925 60.6687C47.7969 61.4185 46.4739 61.7752 45.144 61.6793H17.0534ZM11.5113 47.8794C7.19793 39.377 8.3851 26.6818 13.5651 18.9074C24.2913 2.80822 43.5512 2.57594 59.0735 9.34316C61.4908 10.3349 63.8227 11.5183 66.0461 12.8819C63.3918 10.7039 60.526 8.78959 57.4906 7.1668C42.4669 -1.81192 18.5117 -3.23485 6.01274 13.3133C-2.56064 24.6577 -1.72368 41.9125 8.92923 55.6538L11.5113 47.8794ZM59.7185 15.2515C61.3014 16.1572 64.1743 18.115 65.5614 19.1358H71.0639C65.0924 15.1227 55.1756 9.70036 45.3794 9.48565C50.4202 10.7044 55.2502 12.6471 59.7185 15.2515ZM85.405 34.5753L82.8169 42.3555C87.1283 50.8521 85.9451 63.5531 80.7651 71.3236C70.041 87.4209 50.7692 87.6571 35.2568 80.9035C32.8438 79.8996 30.5144 78.7105 28.29 77.3472C30.9417 79.5295 33.807 81.446 36.8436 83.0682C51.8634 92.0254 75.8225 93.4757 88.3294 76.9119C96.8988 65.5909 96.0618 48.3108 85.4089 34.5655M34.6117 74.9834C33.0288 74.0777 30.15 72.1083 28.7649 71.0933H23.2703C29.2259 75.1064 39.1507 80.5366 48.9469 80.7552C43.9136 79.5165 39.0862 77.5729 34.6117 74.9834Z" fill="#84888E"/>
<path d="M123.647 21.5818H135.655C145.973 21.5818 155.406 24.5096 155.406 35.651C155.406 46.5231 147.321 50.4562 137.145 50.4562H133.144V68.1325H123.647V21.5818ZM133.144 43.117H136.466C141.215 43.117 145.493 41.5887 145.493 36.1878C145.493 30.7869 141.351 28.919 136.466 28.919H133.144V43.117Z" fill="#84888E"/>
<path d="M160.892 33.7848H168.973V41.5924H169.104C169.511 38.3932 173.247 32.9864 178.674 32.9864C179.606 32.9464 180.539 33.0378 181.444 33.2578V42.256C180.16 41.7143 178.769 41.4642 177.374 41.524C169.986 41.524 169.986 50.5925 169.986 55.5289V68.1323H160.884L160.892 33.7848Z" fill="#84888E"/>
<path d="M214.697 66.1978C211.003 68.119 206.866 69.0606 202.693 68.9305C191.153 68.9305 184.44 62.3916 184.44 51.1253C184.44 41.1882 189.794 32.9824 200.653 32.9824C213.611 32.9824 217.273 41.725 217.273 53.7233H193.118C193.528 59.2608 197.459 62.3916 203.1 62.3916C207.205 62.2527 211.201 61.0613 214.697 58.9348V66.1978ZM208.589 47.5963C208.318 43.2591 206.288 39.5232 201.195 39.5232C196.102 39.5232 193.528 42.9898 193.118 47.5963H208.589Z" fill="#84888E"/>
<path d="M247.059 41.1885C245.129 40.3003 243.016 39.8667 240.887 39.9217C235.254 39.9217 231.659 44.3213 231.659 50.7879C231.659 57.1276 234.71 61.9937 241.089 61.9937C243.501 61.8958 245.873 61.3549 248.084 60.399L248.479 67.8045C245.526 68.638 242.46 69.0185 239.39 68.9327C227.929 68.9327 222.158 61.2657 222.158 50.7801C222.158 40.843 228.129 32.9749 239.047 32.9749C242.029 32.9139 245.003 33.2976 247.868 34.1129L247.059 41.1885Z" fill="#84888E"/>
<path d="M254.729 18.9778H263.831V27.5173H254.729V18.9778ZM254.729 33.7848H263.831V68.1284H254.729V33.7848Z" fill="#84888E"/>
<path d="M294.143 40.9774C291.546 39.9943 288.786 39.4978 286.005 39.5135C283.561 39.5135 280.648 40.3781 280.648 43.3118C280.648 48.7771 296.454 45.3145 296.454 57.7207C296.454 65.7235 289.19 68.9226 281.8 68.9226C278.312 68.87 274.846 68.3767 271.485 67.4548L272.03 60.1196C274.796 61.5517 277.863 62.327 280.987 62.3838C283.294 62.3838 286.96 61.5172 286.96 58.1833C286.96 51.4512 271.147 56.0519 271.147 43.6476C271.147 36.246 277.728 32.9746 284.855 32.9746C288.192 33.0078 291.513 33.4337 294.748 34.2433L294.143 40.9774Z" fill="#84888E"/>
<path d="M303.712 18.9778H312.814V27.5173H303.712V18.9778ZM303.712 33.7848H312.814V68.1284H303.712V33.7848Z" fill="#84888E"/>
<path d="M338.383 32.9746C348.767 32.9746 356.707 39.8472 356.707 51.1838C356.707 61.0546 349.989 68.9227 338.383 68.9227C326.857 68.9227 320.134 61.0546 320.134 51.1838C320.134 39.8492 328.076 32.9746 338.383 32.9746ZM338.383 61.9856C345.369 61.9856 347.204 55.8528 347.204 50.1161C347.204 44.846 344.352 39.9136 338.383 39.9136C332.483 39.9136 329.635 44.9885 329.635 50.1161C329.635 55.7864 331.46 61.9856 338.383 61.9856Z" fill="#84888E"/>
<path d="M363.825 33.7849H372.444V38.4577H372.58C373.859 36.6574 375.584 35.21 377.591 34.2534C379.598 33.2967 381.819 32.8626 384.044 32.9924C392.323 32.9924 395.916 38.731 395.916 46.4605V68.1266H386.814V49.7905C386.814 45.59 386.741 39.9197 380.912 39.9197C374.331 39.9197 372.908 46.9212 372.908 51.3246V68.1285H363.807L363.825 33.7849Z" fill="#84888E"/>
<path d="M123.52 80.2378H129.06C135.275 80.2378 140.766 82.3009 140.766 90.2393C140.766 98.1777 135.277 100.239 129.06 100.239H123.52V80.2378ZM127.586 97.0866H129.852C131.648 97.0197 133.347 96.2689 134.594 94.9919C135.84 93.7149 136.537 92.0111 136.537 90.2383C136.537 88.4655 135.84 86.7617 134.594 85.4847C133.347 84.2078 131.648 83.457 129.852 83.3901H127.586V97.0866Z" fill="#84888E"/>
<path d="M152.85 80.2378H157.237C161.59 80.2378 166.795 80.0953 166.795 85.6543C166.816 86.8068 166.396 87.9248 165.618 88.7852C164.841 89.6456 163.763 90.185 162.6 90.2959V90.3525C163.704 90.4384 164.343 91.5236 164.75 92.4156L168.002 100.239H163.47L161.03 93.9928C160.451 92.5035 159.926 91.9296 158.215 91.9296H156.907V100.239H152.84L152.85 80.2378ZM156.916 88.7773H158.254C160.259 88.7773 162.552 88.4884 162.552 85.9978C162.552 83.5911 160.286 83.392 158.254 83.392H156.916V88.7773Z" fill="#84888E"/>
<path d="M183.373 80.2378H179.304V100.239H183.373V80.2378Z" fill="#84888E"/>
<path d="M196.443 80.2378H200.509V97.0866H208.381V100.239H196.443V80.2378Z" fill="#84888E"/>
<path d="M219.643 80.2378H223.709V97.0866H231.581V100.239H219.643V80.2378Z" fill="#84888E"/>
<path d="M246.595 80.2378H242.526V100.239H246.595V80.2378Z" fill="#84888E"/>
<path d="M259.429 80.2378H264.433L272.149 95.1971H272.209V80.2378H276.107V100.239H271.14L263.386 85.2815H263.329V100.239H259.437L259.429 80.2378Z" fill="#84888E"/>
<path d="M305.133 84.1065C303.481 83.4073 301.702 83.0467 299.905 83.0466C298.923 82.9819 297.938 83.125 297.017 83.4664C296.096 83.8078 295.259 84.3396 294.563 85.0261C293.867 85.7127 293.328 86.538 292.982 87.4469C292.636 88.3558 292.491 89.3272 292.556 90.296C292.478 91.2234 292.599 92.1566 292.913 93.0344C293.226 93.9121 293.725 94.7143 294.375 95.3883C295.026 96.0623 295.814 96.5927 296.687 96.9447C297.56 97.2966 298.499 97.462 299.442 97.4301C300.341 97.4424 301.238 97.346 302.113 97.1432V91.9297H297.814V88.7774H306.003V99.5519C303.87 100.176 301.664 100.523 299.44 100.584C292.875 100.584 288.314 97.3462 288.314 90.5829C288.314 83.7357 292.554 79.8963 299.44 79.8963C301.456 79.876 303.463 80.1557 305.394 80.7258L305.133 84.1065Z" fill="#84888E"/>
</svg>
