<?xml version="1.0" encoding="utf-8"?>
<svg xmlns="http://www.w3.org/2000/svg" height="30" viewBox="0 0 133 30" width="133">
  <g fill="#fff">
    <path d="m15.1244082.00000064c-8.35298002 0-15.1244082 6.70302992-15.1244082 14.97163636 0 8.2686064 6.77142818 14.9716364 15.1244082 14.9716364 8.3529799 0 15.1244081-6.70303 15.1244081-14.9716364.0011698-3.9710797-1.5919145-7.77984681-4.4285448-10.58782431-2.8366303-2.80797751-6.6842624-4.38496997-10.6958633-4.38381205zm9.235102 22.53818186s-.7317551-3.277091-1.9263673-5.2363637c-.648-1.0690909-1.6486531-1.9374545-2.9843266-1.9112727-.9389387 0-1.7632653.528-2.7727347 1.9374545-.591277.9606908-1.1113371 1.9625954-1.5560816 2.9978182 0 0-.3658776-.8421818-.7934694-1.6756363-.2207272-.4546532-.4756487-.8922483-.7626122-1.309091-1.0138776-1.4094545-1.833796-1.92-2.7727347-1.9374545-1.32244901-.0261818-2.33632656.8421818-2.97991839 1.9069091-1.19461225 1.9636364-1.92636735 5.2363636-1.92636735 5.2363636h-1.08881633l5.80555107-18.86399997 4.4875102 14.72727277.0308571.0261818.0308571-.0261818 4.4875102-14.72727277 5.8099592 18.85527277z"/>
    <path d="m84.295837 10.2901818c-3.6761876 0-6.6563265 2.9500365-6.6563265 6.5890909 0 3.6390545 2.9801389 6.5890909 6.6563265 6.5890909 3.6761877 0 6.6563266-2.9500364 6.6563266-6.5890909-.0024315-3.638057-2.9811465-6.586684-6.6563266-6.5890909zm0 10.7083637c-2.2976505-.0024094-4.1585191-1.8477362-4.1568969-4.1221788s1.8651213-4.1171664 4.1627729-4.1163641c2.2976517.0008022 4.159837 1.8448269 4.1598383 4.1192701.0000007 1.0932555-.4390265 2.1416705-1.2203764 2.9143096-.78135.772639-1.8409273 1.2061213-2.9453379 1.2049632zm-10.8352653-2.6792728v-5.5592727h3.2179592v-2.4698182h-3.2179592v-3.2901818h-2.4950204v11.3192727c.0023329 1.3694551.5547418 2.6817741 1.5354528 3.6476676.9807111.9658936 2.3092058 1.5060597 3.6926289 1.5014233l.5289796.0000296v-2.4698477h-.5289796c-.7217013.0046428-1.4155803-.2753076-1.9283862-.7780212-.5128059-.5027135-.8023471-1.1868289-.8046751-1.9012516zm33.1493873-8.0290909c-3.676187 0-6.656326 2.9500365-6.656326 6.5890909 0 3.6390545 2.980139 6.5890909 6.656326 6.5890909 3.676188 0 6.656327-2.9500364 6.656327-6.5890909-.002431-3.638057-2.981146-6.586684-6.656327-6.5890909zm0 10.7083637c-2.298225 0-4.161306-1.8442613-4.161306-4.1192728s1.863081-4.1192727 4.161306-4.1192727c2.298226 0 4.161307 1.8442612 4.161307 4.1192727 0 1.0924991-.438422 2.1402522-1.218819 2.9127657-.780396.7725135-1.838841 1.2065071-2.942488 1.2065071zm19.149062-10.7083637c-2.940943-.0040267-5.535992 1.9029305-6.383296 4.6907285-.847303 2.7877981.253984 5.7956128 2.708946 7.3986153 2.454961 1.6030025 5.681667 1.4212144 7.937044-.447162v1.3570909h2.384816v-6.2181818c0-.0654545 0-.1265454 0-.192-.002386-3.6278663-2.965031-6.5722849-6.629878-6.5890909zm0 10.7083637c-2.298226 0-4.161306-1.8442613-4.161306-4.1192728s1.86308-4.1192727 4.161306-4.1192727 4.161306 1.8442612 4.161306 4.1192727c-.002392 2.2672257-1.853344 4.1072781-4.143674 4.1192728zm-33.1361635-5.5636364v7.8545454h2.4906122v-7.8545454c.002427-1.4811352 1.2147716-2.6812339 2.7110204-2.6836364h1.1857959v-2.4610909h-1.1857959c-2.8690531.0047964-5.1943549 2.3046596-5.2016326 5.1447273zm22.3273465 7.8545454h2.499429v-16.2894545h-2.499429zm-65.835918-12.9992727c-1.5264556-.0002377-2.9763766.6615837-3.9673469 1.8109091-1.4109133-1.6406711-3.7057561-2.23620156-5.7483277-1.491738-2.0425716.7444635-3.3993624 2.6709182-3.3986111 4.8255562l-.0000003 7.8545454h2.4950207v-7.8545454c-.0400996-.9837933.4672484-1.9103295 1.3218698-2.4140435s1.9192717-.503714 2.7738931 0 1.3619694 1.4302502 1.3218698 2.4140435v7.8545454h2.4950204v-7.8545454c-.0400996-.9837933.4672483-1.9103295 1.3218697-2.4140435s1.9192718-.503714 2.7738932 0 1.3619694 1.4302502 1.3218697 2.4140435v7.8545454h2.4906123v-7.8545454c-.0072778-2.8400677-2.3325795-5.1399309-5.2016327-5.1447273zm13.5462857 0c-2.6938258-.0070639-5.1263704 1.5938302-6.1622013 4.0554371s-.4707044 5.2985505 1.4315969 7.1866382c1.9023012 1.8880876 4.7666841 2.4550288 7.2561483 1.4361939s4.1131406-3.4225534 4.11315-6.0891783c-.0048221-3.6302683-2.9714077-6.5746882-6.6386939-6.5890909zm0 10.7083637c-2.2976505-.0024094-4.1585191-1.8477362-4.1568969-4.1221788s1.8651213-4.1171664 4.1627729-4.1163641c2.2976517.0008022 4.159837 1.8448269 4.1598383 4.1192701.0000006 1.0932555-.4390265 2.1416705-1.2203764 2.9143096-.78135.772639-1.8409273 1.2061213-2.9453379 1.2049632z"/>
  </g>
</svg>