<?xml version="1.0" encoding="UTF-8"?><svg id="Layer_2" xmlns="http://www.w3.org/2000/svg" viewBox="0 0 178.53 40"><defs><style>.cls-1{fill:#6e737d;}</style></defs><g id="A"><g id="Altium"><path id="path278" class="cls-1" d="m29.65,0c-5.51.2-10.15,3.22-12.76,7.8L0,39.26h12.77s2.99-6.82,2.99-6.82h9.55l-.37,6.82h12.79L36.26,0h-6.61ZM49.91,0l-9.82,39.26h11.08L61.02,0h-11.11Zm16.35.39l-7.99,31.66c-.85,3.19-.6,5.25.76,6.19,1.2.92,3.49,1.36,6.87,1.33,1.95,0,4.04-.09,6.27-.28l1.66-6.6h-1.85c-1.85.02-2.59-.76-2.2-2.33l3.53-14.18h4.65l1.65-6.67h-4.61l2.36-9.11h-11.1ZM26.64,8.54l-.91,16.37h-6.66l7.57-16.37Zm127.16.14c-4.06,0-7.23,1.48-9.49,4.44h-.13l.89-3.63h-11.2l-7.47,29.76h11.11l4.93-19.64c.61-2.38,1.99-3.56,4.13-3.52,2.12-.04,2.86,1.14,2.23,3.53l-4.93,19.63h11.08l4.93-19.64c.62-2.38,2.03-3.56,4.23-3.52,2.14-.04,2.88,1.14,2.23,3.52l-4.91,19.64h4.9c3.47,0,6.78-2.3,7.55-5.45l4.27-17.01c.74-3.12.42-5.29-.98-6.51-1.44-1.09-3.48-1.62-6.1-1.61-1.76,0-3.49.34-5.19,1.02-1.76.7-3.31,1.89-4.68,3.58-.27-1.54-.97-2.7-2.11-3.47-1.15-.75-2.92-1.12-5.28-1.12h0Zm-70.09.83l-7.44,29.75h11.07l7.47-29.75h-11.1Zm16.14,0l-5.62,22.48c-.72,3.11-.35,5.24,1.11,6.35,1.37,1.14,3.33,1.69,5.88,1.65,4.04,0,7.18-1.44,9.41-4.32h.13l-.88,3.6h11.07l7.44-29.76h-11.09l-4.93,19.64c-.61,2.38-1.99,3.57-4.16,3.54-2.09.02-2.82-1.16-2.18-3.54l4.92-19.64h-11.1Z"/></g></g></svg>