<?xml version="1.0" encoding="utf-8"?>
<svg xmlns="http://www.w3.org/2000/svg" height="71" viewBox="0 0 132 71" width="132">
  <g fill="none" fill-rule="evenodd">
    <path d="m111 59c.89698 2.3896591 7.55604 4.1393435 11 2.1059265-6.402148.2736443-11-2.1059265-11-2.1059265" fill="#fefefe" fill-rule="nonzero"/>
    <path d="m83.2309102 65.269506c-3.7560381-2.6930557-6.8482937-5.8450455-9.3816486-9.269506-.7566981.3660464-1.5141001.7609912-2.2693904 1.1868986 2.4460706 3.2214836 5.4109194 6.1780652 8.9980203 8.7046111-1.3838776.2628378-2.8029505.4382924-4.2494757.5201712-9.4724524.5318682-18.2114356-3.0714872-24.3748295-9.2082689-.0211172-.0419715-.0401226-.0873833-.0612398-.1300428l-2.8923465.7417256c6.7075127 7.3422579 16.6466543 11.7389431 27.4811632 11.1286364 7.8914813-.4437968 14.9959965-3.4760647 20.5188368-8.1954488-.2534059-.9474547-.393483-1.9712837-.4293822-3.0604782-3.6750891 3.5056512-8.2293558 6.1532952-13.3397076 7.5817018" fill="#fefefe" fill-rule="nonzero"/>
    <g transform="translate(41)">
      <path d="m.49849636.21234295h61.93398604v24.74544405h-61.93398604z"/>
      <path d="m12.7631459 10.7053572c1.0867862 1.0711684 1.2286029 3.2011427 1.0525792 5.1362269-3.2411172 1.6732916-6.44018817 3.8301724-9.55873009 6.5091841 1.95051399-4.4962893 4.87165278-8.4762652 8.50615089-11.645411m11.047449-6.27575233c-.9912915 1.98598836-1.8742608 4.88606949-2.4942634 8.40136343-1.7459844.5083141-3.4884056 1.145343-5.2215623 1.9154498-.0099771-1.6020258-.4311513-3.2876798-1.5443054-5.48964709 2.7700577-2.08852383 5.8885996-3.7327273 9.2601311-4.82716614m7.8768839-1.47840144c.7796355-.04654092 1.5542824-.06326657 2.3246535-.05308574-2.6738504 1.72783169-5.0825962 4.6191864-5.5351268 8.55916621-1.6483518.1570756-3.3024048.4225043-4.9557451.8013765.6470832-3.7349089 1.6234091-6.70625582 2.7337127-8.51262531 1.7559614-.41595948 3.5717852-.68647858 5.4325057-.79483166m-18.3335488 15.64138547-.034207.1367139c-.3641625 1.4165893-.9007854 2.7611856-1.5179375 4.070149.8031529-.0436321 1.6048804-.0625394 2.4037573-.053813.2287596-.569399.4261627-1.1227997.5751059-1.6507482.3990821-1.4114989.7653825-2.611382 1.0098204-3.7392722 1.6989497-.7941044 3.4157156-1.4558581 5.1403205-1.9881699-.3192657 2.4732136-.5074044 5.1827678-.5259332 8.0363081.7789228.1628932 1.5514318.3556017 2.3161017.5817615-.0762532-3.313859.0890809-6.436464.4332892-9.2340096 1.76095-.4305035 3.5283138-.7301107 5.2921143-.9031848.238024 2.827361 1.4495234 6.0910431 4.09273 9.757595l2.7372759-.6864786c-2.7244483-3.5523812-4.0164767-6.6248092-4.3186389-9.2311008 7.100099-.2137973 14.0940136 1.6114794 20.4536727 5.1805863l3.2389792-.8130117c-7.2625824-4.5428302-15.3824788-7.0051358-23.6926519-6.7542512.512393-4.13777873 3.6936478-6.80515526 6.8877303-8.11339146 8.9679459 1.23697042 16.8334275 6.29829556 21.8647131 13.59794816l2.7223104-.6835698c-6.5763037-10.16191921-18.1204675-16.58165748-30.8932341-15.83118513-14.7781544.86827905-26.8503894 11.07964793-31.04075194 24.68632253 1.86642168-.5926695 3.75493542-1.0835308 5.64986297-1.4500406 2.34318232-1.930721 4.75192817-3.569834 7.20557067-4.9151575" fill="#fefefe" fill-rule="nonzero"/>
    </g>
    <g transform="translate(86 43)">
      <path d="m.39612244.07705879h44.37867196v24.81258941h-44.37867196z"/>
      <path d="m41.2713348 15.1844118c-.344637.8777326-.3355307 1.8070967-2.2681599 2.8099081.6108201-.994085 1.5039343-2.139428 1.4359876-3.4142129 1.0016889-.4974061 2.1133535-.7206571 3.2068055-.8675519-1.5235478.5933968-2.2870729 1.508944-2.3746332 1.4718567m-2.4783045.7112034-16.1937374-4.2752199c.0924636-.4014154.6815688-1.3089634.8216651-1.4064084l15.7454291 4.2294061c.5134532.136714.2970043 1.6325683-.3733568 1.4522222m-16.4998479-1.3504139c.114879-.0029088 5.8118972 4.3450313 14.557412 2.9000811-5.6865109 5.8227056-14.6106486 1.8209136-14.557412-2.9000811m-1.3000942 3.090608.1884296-1.3722299c2.0832328 4.7515371 8.1543082 5.8728824 11.8185284 5.0664155-1.635625 1.4762199-9.6113103 1.1613414-12.006958-3.6941856m-1.6741514 5.3943836c-3.3889308-.2436126-5.5989507-4.635912-6.127114-8.3191896.6871726 2.1525176 2.6373139 6.238665 4.9748215 6.7266175-.3565452-4.4446579.6262307-10.950206 5.6276705-15.47558339-5.0238552 2.91898838-6.8058808 7.64289189-7.1750347 11.10946329-.9561576-1.0253547-1.631422-2.9575301-1.7308904-4.9704249 0-.0007272.0007004.0007272.0007004-.0007272-.0014009-.0305425-.0084057-.0530858-.0112077-.0814467.8692979-.0312696 1.6188134-1.0733499 1.7014702-2.40631101.0133092-.22325098.0035024-.43922994-.0196135-.64720968.0182126-.02036165.0357246-.03417849.0553381-.05672175 1.959948-2.79318245 5.0609808-5.85761121 9.6589431-6.69171178-4.630885-.20797974-8.1550087 2.66446772-10.1653914 5.35438751-.0112077.01381683-.0196135.02836087-.0294202.04217771-.1267872-.17598286-.271787-.32287764-.4328978-.42977632 3.1409603-4.63082163 7.4972564-6.18630647 12.2626338-5.3136642 1.0787419.19707171 2.0348995.48649806 5.0707875.74465473-2.8341492 1.89581533-5.4154245 2.55175143-7.2471843 3.56765247-4.4620689 2.44485275-7.1091895 9.77432062-6.4136111 16.84781332m25.4485025-10.1815536c-2.8936902-.5381294-4.8102083.7112034-4.8697492.7090218-.0441304-.0043632-10.0610196-2.799-13.7483556-3.83380832l-1.9389335-.54249261c1.2468575-1.75401096 3.6551138-2.51030092 6.068974-3.62219261 1.0437178-.48140765 2.4804059-1.04862512 3.553544-1.82891275 1.9368321-1.40931726 2.2142228-2.33577247 2.226131-2.33577247-3.53323.12071552-6.8619193-.86973346-7.4489231-.99699379-1.5515671-.33524007-3.1017332-.39996104-4.5972618-.22906859-.0497342.00436321-.1008694.01090803-.151304.01745284-4.0151615.4988605-7.6205412 2.70519103-9.7619139 5.95578347 0 0-.2633812.35632893-.3516419.4588644-.2815936.32360484-.6801677.81955652-.6801677.81955652l1.1768093.31415122c.8132593.14471318.3558448 1.97944354-.7221967 1.68928999l-5.16605299-1.40059084c-2.01598652.17525566-4.11953326.3468753-5.54641461.45450118-.73270393.05454014-1.54386181.14762198-2.41386016.28215433l11.45147586 3.12551373c-.8195636 7.7570625 3.1920954 12.5296885 8.8505871 13.0045514-.0112077-.7890141-.0308212-2.452852.0091063-5.4227445 0 0 8.1452019 9.0711164 17.4868267-.684297.0686473-.0625394.7866411 1.8412752.7866411 1.8412752 4.1132289.4959517 5.9260757-7.7563354 5.7866798-7.7752426" fill="#fefefe" fill-rule="nonzero"/>
    </g>
    <path d="m108.563654 26.6539974-1.563654 4.3460026c2.999837-1.5484928 3.650923-4.0661861 4-5z" fill="#fefefe" fill-rule="nonzero"/>
    <path d="m110.494118 22.8425197c.023006-.0061623.096209-.0417665.250457-.1314618l.176209-.119822 1.079216-3.525505c-.037124-.0191715-.067451-.031496-.116078-.0438206l-.116079-.0219103-.625359.1889764-1.142484 3.8110236z" fill="#fefefe" fill-rule="nonzero"/>
    <g transform="translate(0 14)">
      <path d="m0 9.87110617h131.461936v56.19959653h-131.461936z"/>
      <path d="m70.1586682 35.177374-3.849651.9805008 2.0164502-5.1028828-2.9496774.8742502-2.3893166 5.0643758-3.6876274.9534033c.5405502-1.1281107 3.1541526-6.5347704 3.1909439-6.5376228 4.56213-10.2970412 11.8906881-10.5630243 13.6517213-11.0757371zm-16.1252334 4.1580365-7.3738398 1.9068066 5.7536044-14.7709772 3.5142835-.9391415-4.5819408 12.2730177c2.6185551-1.9381827 7.1941281-8.355293 8.2490499-11.3816533l-2.039091-1.2529018 6.8056962-1.7449349c-3.6996554 10.6920939-10.1657389 15.8620073-10.3277624 15.9097844zm-10.2202184 2.619185-3.8800745 1.0033198 2.0348458-5.1699134-2.9496774.8742502-2.4657294 5.1535123-3.6487135.9612473c.5398426-1.1281108 3.1916514-6.6317509 3.2277353-6.6346033 4.563545-10.2984674 11.6522517-10.420406 13.6566739-11.1078262zm-21.3510231-23.1619248c-7.1014421-1.9802551-8.9473784-3.5740146-9.4122232-3.99046l14.4625464 3.7636969 23.4835076 6.0855228c-1.0655347.2488689-2.6687894.5184175-3.6437608.6909857zm47.2415355-.2125013 1.4978333-3.8457024c.0629698-.1590194.3785266-.3693814.8009198-.5947183.4351287-.2296155.8384188-.4014706 1.193597-.4898939l2.1084286-.5198437-.3516406.9070524-1.2905281.3187519.1528257-.3501279-.3580084.0791531c-.3516406.0877103-.6021049.1682896-.7719112.241738-.1436279.062039-.1860795.1005459-.2016451.1383398l-1.4426462 3.7451565c-.0007075.0028524-.0049527.0399331.2292385.0335153.1790042-.0071309.2879633-.0221058.3424428-.0356546.1733439-.0420724.3311223-.1062506.497391-.2060834.1761741-.1076768.2603697-.1918216.2872557-.2631308l-.080658-.1739943 1.4136377-.3494148-.1627311.4178716c-.0785354.2032311-.4464491.4392644-.967896.6802893-.4506943.2117882-.8624747.3693814-1.2233131.4592309-.3247546.0791532-.670735.1140946-1.033696.1140946-.4620148-.000713-.7237995-.0891364-.6388963-.3066293zm8.4096583-6.0470159-1.758203 4.5167216 2.1395597-.5291139-.2179181.5583506-3.4399932.8500051 1.9768287-5.0757853zm3.1499074-.8172028 2.9631204-.7309188-.2122579.545515-1.6619794.4100276-.5936146 1.5288681 1.6591493-.4093145-.2143805.5583507-1.6633945.4100276-.7337048 1.8832746 1.6626869-.4093145-.2200407.5583506-2.9624128.7309188zm.9091714 20.3423611-9.7313176 2.5286224 5.6687012-14.8822195 3.8404531-.9797877-4.804104 12.8705884c3.2270277-.5369579 4.5876009-1.7342385 7.1736098-4.8126545zm3.6685242-21.369926.094101 2.7090346 2.1055985-3.226739 1.4277882-.38578251-4.1390293 5.59491591-.539135-4.4553957zm7.660388-2.01305728-.2115504.54622809-1.6619794.41002761-.5950297 1.52958128 1.6626869-.4107407-.2193331.5590637-1.6605644.4107407-.7337049 1.8825616 1.6612719-.4121669-.2179181.561203-2.9631204.7323449 1.9775362-5.0772114zm2.5279917-.68100238-1.7574955 4.51600846 2.1374371-.5276877-.2179181.5590637-3.4399932.849292 1.9761212-5.07507219zm2.9709032-.24245111c.0841956-.21677981.4358362-.45923092.9594057-.71095222.4344213-.2096489.8575223-.36938139 1.2629343-.4692142.387017-.09626735.760591-.1262172 1.123552-.10625063.380649.0164011.592907.10696372.515079.30092461l-1.743345 4.47750151-1.3011406.3216043.7450256-1.9153638-1.2275586.30306388-.7457328 1.91607682-1.3365173.3287352zm6.923853-2.22769783.424516 1.75990981.80375-2.06297369 1.301848-.31946499-1.977536 5.07507217-1.319537.3258828.598568-1.63725806-.51791-1.98952527-1.307508 3.92984723-1.302556.3201781 1.976828-5.07649838zm6.202884-1.62941407c.358008-.08771025.698328-.09626735 1.022375-.04920331.322632.04064621.522862.12265174.459185.28309732l-1.458212 3.74301727c-.064385.1675765-.374281.38364322-.807995.61611105-.433714.23389401-.839834.40931452-1.197135.49702477l-2.126824.52554843 1.978244-5.08149zm-2.174229 15.69443077c1.572124 3.1860928 5.682852 2.8887336 6.589193 2.1071853 0 0-2.015742 3.4299701-5.457858 3.0791291-2.980101-.30449-4.511896-3.9662149-4.772266-4.559507l-2.294508 6.3607761-3.473246.8984953 5.341824-14.7902307c.029716-.0406462 5.621297-1.4996314 8.957283-2.4009791.105422 2.7717867-2.503935 6.8385475-4.876271 8.2012653-.125233.0713092-.249757.1347743-.371452.1911086-.000707.0149749.157071.6211026.357301.9127571zm-11.6076774 8.2982457-9.0202537 2.3638983 5.6920496-14.8422864 8.8575225-2.2733357-1.67047 4.1608889c-.93818-1.3997986-2.048996-2.0779486-4.2536481-1.379832l-1.7631557 4.7306489 4.0378528-.3009246-5.0298048 2.7411237-1.8367385 4.3348833c2.6878927-.459231 4.9215534-1.9153638 6.9273903-4.1352176zm-14.6493334 3.7551398 5.7507743-14.8665315 3.6366855-.9270189-5.7302561 14.8658184zm-16.5971535 13.9059973c7.1191303-6.1974782 16.4018762-8.1221121 21.9701087-8.5271481 3.3791459-.2460166 7.1134701-.6196765 10.0072529-.9448463l.8179005-1.0418266c.7874772-1.0867515 1.6832052-2.0045002 2.6574692-2.7717867-10.1218724 1.5345729-20.8055205 2.0251799-29.7260129 6.2452553 3.879367-4.0104265 14.1208112-6.3023026 25.4200073-8.0550815 12.4368986-1.8718652 25.7582046-4.9952059 21.0382966-12.142522-.892191-.8507181-1.373309-1.0746289-2.08225-2.0365893-3.075617-4.1630281 2.189794-8.92362698 8.096224-8.53356593.404705.02781057 1.475192.1932478 1.439109.23032855l-1.451137 3.72661618c-1.187937-1.91251141-5.04254-2.36247214-5.551959-.0499164-.381357 1.7335254 2.344742 2.3646114 3.931724 5.3881193 2.166445 4.1238081-.098347 8.2868363-4.022288 10.3191471-1.521181.7879661-3.09189 1.4582721-4.700805 2.0337369.370744.077727.713894.1597325 1.07261.2246238.619793.1611587 2.820908.7515985 5.075087.8542836 5.826479-3.4271177 7.550721-8.3895214 5.851243-15.5867539l4.521093-12.14537434c-.033254.03779385-11.427258 2.80387576-16.286549 3.97405891l2.168568-6.5747036-49.8034883 12.45913463c-11.4350412-5.24193559-25.5622201-1.605169-36.9314613 4.8269163l3.7803134.9598212c14.168923-7.0546142 27.2977822-7.3541126 32.9516254-1.777024-.0410365-.1854038-11.299196 6.5226479-12.4489264 7.3940457 5.3750778-10.5929742-3.9869111-8.4572651-12.1121439-3.4863043l9.914567 2.517213c-.094101.2937937-.2037676.5840219-.3247546.8229075l-33.5388723-8.502903c-6.8127714-1.7698931-12.96188303-3.4513628-18.83081424-2.2854582 4.57840312 3.8806439 10.77138144 5.3895455 17.58415274 7.1594386l25.0344054 6.6331771c-.4556469.1961002-.8837004.3964789-1.2480765.5911529l-5.6135142-1.4832303c-.0516494.0534818-.1082515.1069637-.1591934.1604455-21.3680038 22.4737916-7.312285 26.2353493 8.2462198 17.5919672.321217-.1611586-2.1961618 2.1970349-2.1961618 2.1970349-17.2912369 17.1134829-36.15176723 4.2200755-13.121784-20.3658931-2.6136024.7437544-8.0063684 1.9930907-8.0134436 1.8412023 1.7872116-1.4539936 3.5914038-2.7946056 5.3984261-4.0261146l-3.0685418-.810072c-3.368533 2.5842436-6.2432127 5.3267935-8.3948003 7.9716499l6.6182016-.8706847c-18.9235002 30.5495527 11.6840904 34.4287705 26.1749379 13.8760474l24.0403308-6.0776788c-2.201822 2.1792076-3.5057931 5.3303589-4.1828958 8.0971539z" fill="#fefefe" fill-rule="nonzero"/>
    </g>
    <g fill="#fefefe" fill-rule="nonzero">
      <path d="m41 50 2.3540974-.7603059 1.6459026-4.2396941c-2.0315074.6805808-4 5-4 5"/>
      <path d="m102 21.028286-.0219-.0106073c-.025433-.0093594-.078418-.0149751-.173084-.016847-.185094-.0049916-.305193.0137272-.34758.0230866-.070647.014351-.220417.0611481-.459202.156614-.108796.045549-.170258.076747-.206288.0960898l-.791946 1.7233779 1.226422-.265807z"/>
      <path d="m67 43 2.3537572-.7604045 1.6462428-4.2395955c-2.0317919.680669-4 5-4 5"/>
    </g>
  </g>
</svg>