<svg width="130" height="48" viewBox="0 0 130 48" fill="none" xmlns="http://www.w3.org/2000/svg">
<path fill-rule="evenodd" clip-rule="evenodd" d="M56.9992 24.9356L55.7694 29.3615C55.5109 29.3856 55.1865 29.4231 54.6823 29.4231C52.269 29.4231 52.5374 28.7115 53.5558 24.8538C54.6144 20.8449 55.2298 20.113 56.7367 20.113C58.1856 20.113 58.1974 21.0702 57.8288 22.2807H61.5071C62.1038 20.0206 61.7047 18.0186 57.4041 18.0186C52.6141 18.0186 51.3136 19.0075 49.7703 24.8538C48.3332 30.2985 48.805 31.7429 53.9824 31.7429C56.4369 31.7429 57.4651 31.5658 58.9602 31.3L60.6922 24.9356H56.9992Z" fill="#84888E"/>
<path fill-rule="evenodd" clip-rule="evenodd" d="M65.7732 29.3015C65.2935 29.3015 65.1264 29.159 65.2169 28.7786L66.0514 25.5767H70.9722L71.5276 23.4755H66.6049L67.1632 21.3406C67.3106 20.783 67.7156 20.3082 68.5079 20.3082H72.4487L73.0041 18.2061H67.2772C64.9023 18.2061 64.1887 18.6221 63.2657 22.1225L61.5641 28.5253C61.0422 30.6738 61.6939 31.6088 63.4859 31.6088H68.4273C69.4005 31.6088 70.0266 31.1023 70.3284 30.3252L70.7344 29.3015H65.7732Z" fill="#84888E"/>
<path fill-rule="evenodd" clip-rule="evenodd" d="M122.064 29.3015C121.585 29.3015 121.417 29.159 121.507 28.7786L122.342 25.5767H127.264L127.819 23.4755H122.897L123.456 21.3406C123.603 20.783 124.008 20.3082 124.8 20.3082H128.74L129.296 18.2061H123.57C121.194 18.2061 120.479 18.6221 119.555 22.1225L117.857 28.5253C117.335 30.6738 117.986 31.6088 119.777 31.6088H124.72C125.693 31.6088 126.318 31.1023 126.62 30.3252L127.026 29.3015H122.064Z" fill="#84888E"/>
<path fill-rule="evenodd" clip-rule="evenodd" d="M41.0129 29.3188H40.0024L42.3812 20.3111C42.6869 20.3102 42.8019 20.2976 43.5588 20.2976C45.6949 20.2976 45.6919 20.99 44.6726 24.8497C43.6434 28.7565 43.0437 29.3188 41.0129 29.3188V29.3188ZM44.1702 18.2061H39.2435L35.8119 31.2063C35.754 31.4287 35.8867 31.6088 36.1088 31.6088H40.4959C46.0074 31.6088 46.9354 30.5765 48.4472 24.8497C49.7605 19.8739 48.9515 18.2061 44.1702 18.2061V18.2061Z" fill="#84888E"/>
<path fill-rule="evenodd" clip-rule="evenodd" d="M113.082 18.1807C110.245 18.1807 108.925 18.2404 108.151 18.2067L104.718 31.2069C104.659 31.4293 104.791 31.6094 105.013 31.6094H108.305L111.286 20.3117C111.591 20.3108 112.053 20.2857 112.521 20.2857C114.119 20.2857 114.33 20.8423 113.908 22.4399L111.593 31.2069C111.534 31.4293 111.667 31.6094 111.889 31.6094H115.181L117.602 22.4399C118.439 19.264 117.015 18.1807 113.082 18.1807" fill="#84888E"/>
<path fill-rule="evenodd" clip-rule="evenodd" d="M84.573 18.2061L84.0049 20.3834H87.6616C87.6979 20.3834 87.6989 20.4286 87.6655 20.4537C87.0816 20.8831 86.7248 21.4975 86.5557 22.1389L84.1572 31.2063C84.0983 31.4287 84.232 31.6088 84.4531 31.6088H87.9869L90.9556 20.3834H92.7662C93.7826 20.3834 94.4009 19.9664 94.745 19.0968L95.091 18.2061H84.573Z" fill="#84888E"/>
<path fill-rule="evenodd" clip-rule="evenodd" d="M33.3259 31.6088L36.7585 18.6086C36.8175 18.3861 36.6848 18.2061 36.4626 18.2061H32.9829L29.5503 31.2063C29.4923 31.4287 29.624 31.6088 29.8462 31.6088H33.3259Z" fill="#84888E"/>
<path fill-rule="evenodd" clip-rule="evenodd" d="M97.7044 29.5435C96.1247 29.5435 95.8908 28.9792 96.9927 24.8009C97.9108 21.3245 98.7857 20.1131 100.194 20.1131C101.773 20.1131 101.948 20.9451 100.929 24.8009C99.921 28.621 98.9252 29.5435 97.7044 29.5435V29.5435ZM100.746 18.0215C96.6025 18.0215 94.8056 18.7437 93.1777 24.9087C91.7691 30.2494 92.8986 31.795 97.1097 31.795C101.396 31.795 103.09 30.9312 104.679 24.9087C105.83 20.5493 105.596 18.0215 100.746 18.0215V18.0215Z" fill="#84888E"/>
<path fill-rule="evenodd" clip-rule="evenodd" d="M2.15274 25.0076L4.29564 17.6446C4.50305 16.8877 5.35825 16.1973 6.22131 16.1973H12.7749C12.8849 16.1973 12.9194 16.3369 12.8348 16.3937C9.42681 18.6789 5.31795 22.0686 2.33853 25.1029C2.26087 25.1828 2.12227 25.1193 2.15274 25.0076" fill="#84888E"/>
<path fill-rule="evenodd" clip-rule="evenodd" d="M7.33013 29.429L9.4514 22.1624C9.48286 22.0516 9.36195 21.9717 9.27152 22.0478C6.15055 24.6767 2.38572 28.518 0.0304963 31.4224C-0.0294656 31.4965 0.00100681 31.6092 0.10422 31.6092H9.2843C13.1553 31.6092 15.2736 30.4344 16.0413 27.6273C16.6675 25.3402 15.4446 23.7811 13.4915 23.3796C13.4571 23.3719 13.4256 23.3074 13.4915 23.2958C15.1439 23.0194 16.809 22.3684 17.4037 20.0082C18.0466 17.4534 16.0531 16.0532 13.7598 16.1977L10.2516 28.2311C10.0618 28.882 9.35114 29.429 8.67681 29.429H7.33013Z" fill="#84888E"/>
<path fill-rule="evenodd" clip-rule="evenodd" d="M27.2778 26.2344C27.1549 25.8348 27.0222 25.543 26.8285 25.3051C26.803 25.2743 26.7971 25.2339 26.8423 25.2194C28.4151 24.7447 29.4443 23.7711 29.8807 22.1215C30.4557 19.9423 29.052 18.2061 25.5084 18.2061H20.2416L16.809 31.2063C16.75 31.4287 16.8817 31.6088 17.1049 31.6088H20.3959L23.3783 20.3111C23.6968 20.3102 24.0015 20.2976 24.7594 20.2976C26.0284 20.2976 26.4973 21.0651 26.224 22.0994C25.8632 23.4639 24.7849 24.2295 23.5021 24.2295H23.0175L24.3878 30.7152C24.55 31.3478 24.8753 31.6088 25.6165 31.6088H28.5556L27.2778 26.2344Z" fill="#84888E"/>
<path fill-rule="evenodd" clip-rule="evenodd" d="M72.0723 27.069C70.6785 30.3335 72.496 31.8127 76.1969 31.8127C79.5754 31.8127 81.45 31.0259 82.2541 27.9819C82.5283 26.9419 82.3524 25.8191 81.6997 25.1257C80.4355 23.7795 78.0066 23.5281 77.1524 22.7481C76.7179 22.3514 76.7218 21.7967 76.8486 21.3191C77.0796 20.4418 77.6812 19.9642 78.6554 19.9642C80.1819 19.9642 80.2213 20.8848 79.8458 21.9768H83.122C83.8927 19.6964 82.8832 17.9072 79.024 17.9072C75.7772 17.9072 74.0245 19.1572 73.3954 21.5473C73.2224 22.204 73.2853 23.2739 73.6864 23.9441C74.5779 25.4406 76.9401 25.6274 78.2474 26.5172C78.8156 26.9034 78.8333 27.4263 78.6809 28.0002C78.387 29.1163 77.8149 29.6488 76.6756 29.6488C75.5806 29.6488 74.923 29.0248 75.5501 27.069H72.0723Z" fill="#84888E"/>
</svg>
