<?xml version="1.0" encoding="UTF-8"?><svg id="Layer_2" xmlns="http://www.w3.org/2000/svg" viewBox="0 0 240.43 40"><defs><style>.cls-1{fill:#6e737d;}</style></defs><g id="B"><g id="Booking.com"><path class="cls-1" d="m97.95,0c-2.01,0-3.65,1.64-3.65,3.66s1.63,3.66,3.65,3.66,3.66-1.64,3.66-3.66-1.64-3.66-3.66-3.66Z"/><path class="cls-1" d="m155.61,24.37c-2.01,0-3.65,1.64-3.65,3.67s1.63,3.66,3.65,3.66,3.66-1.64,3.66-3.66-1.64-3.67-3.66-3.67Z"/><path class="cls-1" d="m34.33,8.97c-6.66,0-11.49,4.8-11.49,11.4s4.83,11.4,11.49,11.4,11.54-4.8,11.54-11.4-4.85-11.4-11.54-11.4Zm0,17.48c-3.15,0-5.33-2.5-5.33-6.07s2.19-6.07,5.33-6.07,5.38,2.5,5.38,6.07-2.17,6.07-5.38,6.07Z"/><path class="cls-1" d="m87.23,20.95h0c-.26-.49-.56-.9-.87-1.23l-.2-.21.21-.2c.31-.32.62-.7.92-1.15l5.88-8.73h-7.13l-4.41,6.83c-.25.37-.75.55-1.51.55h-1.01V3.89c0-2.58-1.61-2.94-3.35-2.94h-2.98v30.49h6.33v-9.15h.59c.72,0,1.21.08,1.44.47l3.49,6.58c.97,1.79,1.94,2.09,3.77,2.09h4.84l-3.61-5.97-2.39-4.53Z"/><path class="cls-1" d="m117.91,8.92h0c-3.21,0-5.27,1.43-6.42,2.64l-.38.39-.14-.53c-.34-1.29-1.48-2.01-3.19-2.01h-2.83l.02,22.02h6.28v-10.15c0-.99.13-1.85.39-2.64.7-2.38,2.65-3.86,5.08-3.86,1.96,0,2.73,1.03,2.73,3.71v9.59c0,2.28,1.05,3.35,3.34,3.35h2.99v-14.01c-.01-5.56-2.72-8.51-7.86-8.51Z"/><path class="cls-1" d="m98.04,9.42h-2.98l.02,17.03h0v4.99h3.18s.07,0,.11,0h1.48s1.47,0,1.47,0h0s.01,0,.01,0V12.77c.01-2.25-1.06-3.34-3.29-3.34Z"/><path class="cls-1" d="m58.99,8.97c-6.66,0-11.5,4.8-11.5,11.4s4.83,11.4,11.5,11.4,11.54-4.8,11.54-11.4-4.86-11.4-11.54-11.4Zm0,17.48c-3.15,0-5.34-2.5-5.34-6.07s2.19-6.07,5.34-6.07,5.38,2.5,5.38,6.07-2.16,6.07-5.38,6.07Z"/><path class="cls-1" d="m193.54,8.97c-6.66,0-11.5,4.8-11.5,11.4s4.83,11.4,11.5,11.4,11.54-4.8,11.54-11.4-4.86-11.4-11.54-11.4Zm0,17.48c-3.15,0-5.34-2.5-5.34-6.07s2.19-6.07,5.34-6.07,5.38,2.5,5.38,6.07-2.17,6.07-5.38,6.07Z"/><path class="cls-1" d="m146.58,9.37c-1.19,0-2.11.47-2.57,1.34l-.17.34-.29-.25c-1.01-.88-2.83-1.92-5.78-1.92-5.87,0-9.82,4.41-9.82,10.97s4.09,11.13,9.94,11.13c2,0,3.58-.47,4.83-1.41l.48-.36v.61c0,2.94-1.9,4.56-5.35,4.56-1.68,0-3.2-.41-4.22-.78-1.33-.4-2.11-.07-2.65,1.27l-.5,1.23-.7,1.8.44.23c2.21,1.17,5.08,1.87,7.68,1.87,5.35,0,11.59-2.74,11.59-10.44l.02-20.2h-2.92Zm-7.58,16.11c-3.43,0-4.65-2.99-4.65-5.8,0-1.24.31-5.27,4.32-5.27,1.99,0,4.65.57,4.65,5.47,0,4.62-2.35,5.59-4.32,5.59Z"/><path class="cls-1" d="m17.48,15.81h0l-.92-.52.81-.69c.94-.81,2.51-2.62,2.51-5.75,0-4.79-3.72-7.89-9.47-7.89H3.84s-.75,0-.75,0C1.38,1.03.02,2.42,0,4.13v27.2h3.01s.01,0,.01,0h7.51c6.4,0,10.52-3.48,10.52-8.88,0-2.9-1.33-5.39-3.58-6.65Zm-11.63-6.1v-1.61c0-1.41.6-2.08,1.9-2.16h2.61c2.24,0,3.59,1.34,3.59,3.59,0,1.71-.92,3.71-3.5,3.71h-4.6v-3.53Zm5.11,16.48h0s-5.11,0-5.11,0v-6.11c0-1.31.51-1.98,1.63-2.14h3.48c2.49,0,4.09,1.57,4.1,4.11,0,2.6-1.57,4.15-4.1,4.15Z"/><path class="cls-1" d="m233.12,9c-2.6,0-5.12,1.22-6.74,3.27l-.45.58-.36-.65c-1.16-2.12-3.16-3.2-5.95-3.2s-4.87,1.63-5.78,2.6l-.59.64-.23-.85c-.33-1.22-1.42-1.89-3.06-1.89h-2.64l-.03,21.94h5.99v-9.68c0-.85.11-1.69.32-2.57.57-2.34,2.15-4.86,4.79-4.6,1.63.16,2.43,1.42,2.43,3.85v13h6.04v-9.68c0-1.06.1-1.85.34-2.65.49-2.23,2.13-4.52,4.68-4.52,1.85,0,2.53,1.05,2.53,3.85v9.8c0,2.22.99,3.21,3.2,3.21h2.82v-14c0-5.59-2.46-8.43-7.3-8.43Z"/><path class="cls-1" d="m178.58,23.82h0s-2.6,2.74-5.99,2.74c-3.09,0-6.22-1.9-6.22-6.14,0-3.66,2.42-6.22,5.89-6.22,1.13,0,2.41.4,2.61,1.08l.03.11c.46,1.54,1.86,1.62,2.14,1.62h3.28s0-2.87,0-2.87c0-3.79-4.82-5.16-8.06-5.16-6.93,0-11.96,4.83-11.96,11.47s4.97,11.46,11.83,11.46c5.95,0,9.19-3.91,9.22-3.95l.17-.21-2.6-4.31-.34.36Z"/></g></g></svg>