<svg height="58" viewBox="0 0 81 58" width="81" xmlns="http://www.w3.org/2000/svg"><path d="m33.7073077 36.8440613c-2.8742308 3.7827879-7.4076923 6.2241205-12.5088462 6.2241205-8.6884615 0-15.73269227-7.0800968-15.73269227-15.8140745 0-2.2357589.46269231-4.3623431 1.29461539-6.2891608-4.04076924-2.3774537-6.76038462-6.8210971-6.76038462-11.91049744 0-7.59461171 6.05307692-13.75020768 13.5196154-13.75020768.9530769 0 1.8819231.09988326 2.7784615.29151974 2.0515385-5.60159232 7.3961539-9.59576112 13.6673077-9.59576112 6.0219231 0 11.1888462 3.6817433 13.4065385 8.93258276 1.6869231-.82810188 3.5815384-1.29383659 5.5846154-1.29383659 4.785 0 8.9538461 2.65387487 11.1415384 6.58184196 1.1123077-.22647948 2.2626923-.34494567 3.4396154-.34494567 9.6438462 0 17.4623077 7.93839594 17.4623077 17.73160074 0 9.7920433-7.8184615 17.7304392-17.4623077 17.7304392-2.5142308 0-4.9038461-.5400664-7.0626923-1.5110246-2.4842308 4.4552578-7.1492308 7.4564012-12.4961538 7.4564012-4.0223077 0-7.6592308-1.6991768-10.2715385-4.4389977zm-21.9752312-23.3700101.3276923.9152094c.0519231.1579549.1707692.1056904.2180769.0754931.09-.0545873.158077-.104529.2746154-.1730535.9657692-.6143982 1.86-.6202054 2.1403846-.6202054.7223077 0 1.17.3855959 1.17.9035951v.0278744c0 .5667794-.6888461.7793217-1.4884615 1.0267069l-.1765385.0545874c-1.0973077.3159098-2.2684615.7688688-2.2684615 2.1660729v.0278744c0 1.3251953 1.0615385 2.2496961 2.5823077 2.2496961l.1661538.0011614c.893077 0 1.7561539-.2613224 2.3803846-.6434339.0565385-.034843.1119231-.0998833.0807693-.1881522-.0288462-.0813003-.3057693-.8315862-.3380769-.9152094-.0588462-.1567935-.2192308-.0522645-.2192308-.0522645-.5469231.3042955-1.3961539.5435508-2.1115385.5435508-.6438461 0-1.0592307-.3437843-1.0592307-.8106804v-.0290358c0-.5458737.7107692-.7781603 1.5346153-1.0476128l.1419231-.0464573c1.0926923-.3472686 2.2569231-.8281019 2.2569231-2.1521357v-.0278744c0-1.4320472-1.0315385-2.321705-2.6930769-2.321705-.8157693 0-1.5957693.1289191-2.4219231.5702637-.1557692.0894303-.3103846.1695692-.4626923.2810668-.0161539.0232287-.0853846.0511031-.0346154.1846679zm24.3242312 0 .3276923.9152094c.0484616.1498248.1892308.0952375.2192308.0754931.0876923-.0569102.1569231-.104529.2734615-.1730535.9657693-.6143982 1.86-.6202054 2.1403847-.6202054.7223077 0 1.1711538.3855959 1.1711538.9035951v.0278744c0 .5667794-.69.7793217-1.4896154 1.0267069l-.1765384.0545874c-1.0973077.3159098-2.2684616.7688688-2.2684616 2.1660729v.0278744c0 1.3251953 1.0615385 2.2496961 2.5823077 2.2496961l.1661539.0011614c.8930769 0 1.7561538-.2613224 2.3803846-.6434339.0565384-.034843.1119231-.0998833.0807692-.1881522-.0288461-.0813003-.3057692-.8315862-.3380769-.9152094-.0588462-.1567935-.2192308-.0522645-.2192308-.0522645-.5469231.3042955-1.3961538.5435508-2.1115384.5435508-.6438462 0-1.0592308-.3437843-1.0592308-.8106804v-.0290358c0-.5458737.7107692-.7781603 1.5346154-1.0476128l.141923-.0464573c1.0926924-.3472686 2.2569231-.8281019 2.2569231-2.1521357v-.0278744c0-1.4320472-1.0315384-2.321705-2.6930769-2.321705-.8157692 0-1.5957692.1289191-2.4219231.5702637-.1557692.0894303-.3103846.1695692-.4626923.2810668-.0161538.0232287-.0853846.0511031-.0346154.1846679zm16.6054657 2.8050924c0 .8083575-.15 1.4448229-.4442308 1.8908132-.2930769.4413447-.735.6562098-1.3511538.6562098-.6173077 0-1.0569231-.2148651-1.3442308-.6562098-.2907692-.4459903-.4384615-1.0824557-.4384615-1.8908132 0-.809519.1476923-1.4483072.4384615-1.8977819.2873077-.4471517.7269231-.6631783 1.3442308-.6631783.6161538 0 1.0580769.217188 1.35.6631783.2953846.4506361.4453846 1.0882629.4453846 1.8977819zm1.3869231 1.5005717c.1361538-.461089.2042308-.9663124.2042308-1.5005717s-.068077-1.0394827-.2042308-1.5005717c-.1361539-.4634119-.3484616-.8722363-.6311539-1.2125363-.2826923-.3414613-.6415384-.6143981-1.065-.8083575-.4246153-.1939593-.9242307-.2926812-1.4861538-.2926812-.5630769 0-1.0626923.0987219-1.4873077.2926812-.4234615.1939594-.7823077.4668962-1.065.8083575-.2838462.3414614-.495.7502859-.6323077 1.2125363-.135.4599275-.2030769.965151-.2030769 1.5005717s.0680769 1.0394827.2030769 1.5005717c.1373077.4622504.3496154.8710749.6311539 1.2125362.2838461.3414614.6415384.6155596 1.0661538.8153262.4234615.198605.9242308.2996497 1.4873077.2996497.5619231 0 1.0626923-.1010447 1.4861538-.2996497.4246154-.1997666.7823077-.4738648 1.065-.8153262.2826923-.3402999.495-.7491244.6311539-1.2125362zm11.3892744-3.8453868.3403846-.9465681c.0438462-.1173047-.0565384-.1660849-.0565384-.1660849-.5238462-.2078965-1.253077-.3530757-1.9638462-.3530757-1.2023077 0-2.1242308.3495914-2.7380769 1.0371599-.6126923.6852455-.9230769 1.6213607-.9230769 2.7793096 0 .5354207.0761538 1.0418056.2261538 1.5028946.1511539.4622504.3773077.8710749.675 1.2125362.2976923.3414614.6738462.6155596 1.1169231.8141647.4442308.1997665.9634615.2996498 1.5461538.2996498.39 0 .7407693-.0243901 1.0407693-.0708475.3207692-.0487801.7453846-.163762.9253846-.2346095.0323077-.0127757.1223077-.0580716.0853846-.163762-.1292308-.3728201-.2192308-.6155596-.3403846-.9546981-.0519231-.1440178-.1615385-.096399-.1615385-.096399-.4569231.1451792-.8930769.2113809-1.4653846.2113809-.6865385 0-1.2011538-.2311253-1.5392308-.6817613-.3403846-.452959-.5296154-1.0476128-.531923-1.8385488-.0023077-.868752.2123076-1.5110246.5953846-1.9082347.381923-.3972102.915-.5981381 1.5865384-.5981381.2734616 0 .5284616.0185829.7603846.0545873.2284616.0360044.443077.1080133.645.1858293 0 0 .1303847.0511031.1765385-.0847846zm2.4266433 3.1203037h3.3484615c-.0334615.4332146-.1176923.8234561-.3115384 1.1149758-.2919231.4413447-.6992308.6852456-1.3153846.6852456-.6161539 0-1.0546154-.2427395-1.3419231-.6852456-.1903846-.2915197-.3138462-.6655012-.3796154-1.1149758zm4.6696154.9883796c.3011538-1.0650342.1442307-1.9848893.1396154-2.0359924-.0126923-.120789-.1361539-.1231119-.1361539-.1231119l-4.695.0046457c.03-.7177657.1996154-1.2264734.5469231-1.5725805.3380769-.3379771.8780769-.5540037 1.6061538-.5551651 1.1134616-.0023229 1.5911539.2229952 1.9269231.34843 0 0 .1303846.0476187.1765385-.0813004l.3069231-.8652677c.0623076-.1463406.0126923-.1974436-.0392308-.2264795-.2942308-.163762-1.0084616-.4680575-2.3642308-.4727033-.6588461-.0011614-1.2323077.0940761-1.7042308.2775826-.4753846.1846678-.8723076.4494746-1.1803846.7874517-.3092307.3356542-.5376923.7409944-.6807692 1.2009219-.1419231.4564432-.2134615.9639896-.2134615 1.5087017 0 .5354207.0692307 1.042967.2065384 1.5087018.1361539.4680575.3507693.8803663.6357693 1.2264734.285.3472685.6484615.6260125 1.0811538.8304248.4315385.2044122.9634615.303134 1.5496154.303134.5030769 0 .9623077-.1091747 1.3453846-.2740982.2930769-.1277577.5884615-.35656.8907692-.6840842.1915385-.2067351.4834616-.6585326.6011539-1.1056844zm-42.2697682-.9883796h3.3484616c-.0334616.4332146-.1176923.8234561-.3103847 1.1149758-.2930769.4413447-.7003846.6852456-1.3165384.6852456-.6161539 0-1.0546154-.2427395-1.3419231-.6852456-.1903846-.2915197-.3126923-.6655012-.3796154-1.1149758zm4.6684616.9883796c.3023077-1.0650342.1453846-1.9848893.1407692-2.0359924-.0126923-.120789-.1361539-.1231119-.1361539-.1231119l-4.695.0046457c.03-.7177657.1996154-1.2264734.5469231-1.5725805.3380769-.3379771.8780769-.5540037 1.605-.5551651 1.1157693-.0023229 1.5923077.2229952 1.9280769.34843 0 0 .1303847.0476187.1776924-.0813004l.3057692-.8652677c.0623077-.1463406.0126923-.1974436-.0392308-.2264795-.2942308-.163762-1.0084615-.4680575-2.3642308-.4727033-.6588461-.0011614-1.2323076.0940761-1.7042307.2775826-.4753846.1846678-.8723077.4494746-1.1803846.7874517-.3092308.3356542-.5376923.7409944-.6807693 1.2009219-.141923.4564432-.2134615.9639896-.2134615 1.5087017 0 .5354207.0703846 1.042967.2065385 1.5087018.1361538.4680575.3507692.8803663.6357692 1.2264734.285.3472685.6484615.6260125 1.0811538.8304248.4315385.2044122.9646154.303134 1.5496154.303134.5030769 0 .9623077-.1091747 1.3453846-.2740982.293077-.1277577.5884616-.35656.8907693-.6840842.1915384-.2067351.4823077-.6585326.6-1.1056844zm-14.8166542-4.0827847c-.0034615.0011615.4211539-.3344927 1.3765385-.2764211.6715384.0406502 1.2680769.1695693 1.2680769.1695693h-.0011538v2.1486514s-.6011539.0998833-1.2738462.1091747c-.9576923.0127758-1.365-.3426228-1.3615385-.3414613-.2826923-.200928-.4188461-.4994163-.4188461-.9152094 0-.2624839.0473077-.469219.1396154-.6143982.0623077-.0952375.0876923-.1324033.2711538-.2799054zm1.8680769 3.3205376s.3703847-.0336816.7742308-.0917533v.1997666c0 .6294968-.1303846.9279851-.3865384 1.1254287-.263077.2032508-.653077.305457-1.1607693.305457 0 0-1.1423077.0150986-2.0457692-.4796719-.0415385-.0243901-.0773077-.0383273-.0773077-.0383273s-.1119231-.0394888-.1534615.0766545l-.3323077.8989493c-.0507693.1300806.0415384.1881522.0415384.1881522.4223077.3321699 1.448077.5319364 1.448077.5319364.3392307.0685246.9057692.1173048 1.2576923.1173048.9380769 0 1.6638461-.2195109 2.1565384-.6538869.495-.4355375.7465385-1.1382045.7465385-2.085934l.0023077-4.321693s.0092307-.1254348-.1073077-.1544706c0 0-.1730769-.0476188-.3288462-.0847846-.156923-.0360045-.7223077-.1509863-1.1826923-.2299638-.465-.0801389-.945-.1196276-1.4261538-.1196276-.4569231 0-.8746154.042973-1.2426923.1277576-.3738462.0847847-.6957693.2253181-.9565385.4169546-.2630769.1916364-.4696154.4401831-.6126923.7386715-.1430769.2973269-.2146154.6608555-.2146154 1.0789714 0 .4111474.0842308.7781603.2503846 1.0894244.1661539.3112641.3957693.573748.6807693.7793216.2838461.2044123.6138461.3588829.9807692.4576047.3646154.0987218.7534615.1498249 1.1561538.1498249.2953847 0 .5423077-.00813.7326923-.0220672zm37.8671548 2.4350617c-.0438461-.1289191-.2723076-.7758373-.3530769-.9918639-.03-.0824618-.0807692-.1382106-.1707692-.1277577 0 0-.27.0638789-.5157692.0638789-.1707693 0-.4119231-.0220673-.63-.0894304-.2134616-.0662017-.4084616-.1835065-.5803847-.3507528-.1707692-.1684078-.3092307-.4030174-.4107692-.6956985-.1038461-.2961655-.1557692-.7677074-.1557692-1.2404107v-3.5214654c0-.0789775-.0634616-.1440178-.1419231-.1440178h-1.2334615c-.0784616 0-.143077.0650403-.143077.1440178v7.0487381c0 .0801388.0565385.1440177.135.1440177h1.2034616c.0784615 0 .135-.0638789.135-.1440177v-.5749095c.18.2427396.5030769.4564433.7938461.5888467.293077.1324033.6207693.2322866 1.2103847.1962822.3080769-.0197444.7073076-.104529.786923-.1358877.0311539-.0116144.1061539-.0627174.0703846-.1695693zm-11.5779245 3.2668747c.0323077-.0127758.1234616-.0580717.0865385-.1649235l-.3588462-.991864c-.03-.0743317-.0507692-.1196276-.2042307-.0731703-.0380769.0116144-.0946154.0278744-.24.0592331-.105.0220673-.2446154.0383273-.3853846.0383273-.1857693 0-.3553847-.0232286-.5042308-.0720088-.1453846-.0476188-.2780769-.1300806-.3934615-.2462239-.1165385-.1184662-.255-.2915197-.3288462-.504062-.1719231-.5005777-.24-1.0325141-.2480769-1.0661957h1.5011538c.1257693 0 .165-.0580716.1534616-.1521477l-.1753847-.9825725c-.0265384-.1428563-.156923-.1382106-.156923-.1382106h-1.5461539l-1.0580769-6.024354c-.1107692-.6225282-.2503846-1.1567874-.4130769-1.5865177-.1638462-.4355375-.3357693-.7537702-.6092308-1.0580657-.2538461-.28106682-.54-.48896336-.8676923-.60859098-.3265385-.11846619-.7211538-.18002215-1.1526923-.18002215-.2065385 0-.4269231.0034843-.6876923.06504026-.1880769.0452959-.2907692.07781603-.4292308.12659622-.0588461.02206723-.105.09523753-.0726923.18931361.0334615.09407609.3103846.85946054.3484615.96050524.0484616.1219505.1696154.0754932.1696154.0754932.0842308-.0360044.143077-.0603945.2538462-.0824618.1119231-.0232286.2630769-.0418116.3761538-.0418116.2042308 0 .3911539.0255516.5526923.0801389.1961539.0662017.3092308.1800222.4292308.3333313.1246154.1602778.225.3797887.3276923.6724699.105.2973269.1996154.6887299.2815385 1.1649175l1.0523077 5.9140178h-1.0373077c-.1246154 0-.165.0592331-.1523077.1521478l.1742308.9837339c.0276923.1416949.156923.1370491.156923.1370491h1.0661539l.0576923.3193942c.1592308.9488909.4765384 1.6701409.9438461 2.1440057.4696154.4761876 1.1388462.7177657 1.988077.7177657.2434615 0 .4580769-.0162601.6380769-.0487802.1776923-.0336816.3138461-.0650403.4638461-.1114976zm-20.9740373-10.2207242c0-.0789775-.0565385-.1428563-.135-.1428563h-1.245c-.0784616 0-.1338462.0638788-.1338462.1428563v10.0858859c0 .0789775.0553846.1428563.1338462.1428563h1.245c.0784615 0 .135-.0638788.135-.1428563z" fill="#fff" fill-rule="evenodd" transform="matrix(1 0 0 -1 0 43.068182)"/></svg>