<svg width="81" height="27" xmlns="http://www.w3.org/2000/svg" xmlns:xlink="http://www.w3.org/1999/xlink"><defs><path id="a" d="M.2.3h14.4v26.3H.2z"/></defs><g fill="white" fill-rule="evenodd"><path d="M47.4 12.9c-1.5-1-3.2-1.6-5-2-1.5-.6-3.1-1-4.7-1.5-.3 0-.7-.2-1-.4-.4-.3-.5-.7-.4-1.2.1-.3.4-.6 1.4-.6h3.2v-7h-1c-1.5.1-3 0-4.6.2-3.3.3-5.8 2-7 5.2a7 7 0 00.4 6.4 8 8 0 003.4 3c2 1 4.2 1.6 6.4 2.1l2.1.7c.8.3.9 1.5.1 2-.2.1-.5.3-.8.3l-2.6.1h-.5V27h.4l3.3-.1c2-.2 4-.6 5.7-1.6 3.3-1.8 4.4-4.9 4-8.1-.2-1.9-1.3-3.2-2.8-4.2" fill="white" fill-rule="nonzero"/><g transform="translate(66 .2)"><mask id="b" fill="#fff"><use xlink:href="#a"/></mask><path d="M14.6 26.6l-7-11.5 2.2-1c2.3-1 3.7-3.2 3.7-5.6.1-2-.3-3.8-1.6-5.3A8 8 0 007.5.7C6.5.4 5.3.3 4.2.3h-4V6h2.3c.6 0 1.3 0 2 .3a2 2 0 011.4 2.1c0 1-.5 1.8-1.6 2-1.3.3-2.7.3-3.8.3H.2v6.7l5.3 9.1h9.1" fill="#ED1C24" fill-rule="nonzero" mask="url(#b)"/></g><path d="M42.4 7.1h6.9V.3h-6.9v6.8zM28.5 26.9h6.7v-6.6h-6.7v6.6zm-7.6-8c-2.3.8-4.6 1.2-7 .7a6.5 6.5 0 01-3.8-1.9c-2-2.1-2-6-.2-8.3a6 6 0 014.2-2.3V.3h-.9C11 .4 9 1 7.2 2 3.2 4.5 1 8 .6 12.6.1 17 2 21.3 5.5 24c2.6 2.1 5.7 3 9 3.1 2.6 0 5.2-.3 7.6-1.2h.3v-7.3H22l-1 .4z" fill="white" fill-rule="nonzero"/><path d="M15.6 7.2h6.9v-7h-6.9v7zm38.2-.8h2.8v20.5h8V.5H53.8v5.9z" fill="#ED1C24" fill-rule="nonzero"/></g></svg>